<svg width="111" height="116" viewBox="0 0 111 116" fill="none" xmlns="http://www.w3.org/2000/svg">
<path d="M97.0753 52.8473C100.151 57.299 99.4387 63.1239 95.4839 65.8566L48.9353 98.0196C44.9805 100.752 39.2801 99.3585 36.2041 94.9067L8.79064 55.2321C5.71468 50.7803 10.3678 35.346 14.3226 32.6133L51.2482 7.09936C56.7875 3.27195 64.0906 5.10956 68.3557 11.2823L97.0753 52.8473Z" fill="#2B230B"/>
<path d="M99.0645 63.3824C102.14 67.8342 101.428 73.6591 97.473 76.3917L58.0858 103.607C54.1309 106.339 48.4305 104.945 45.3546 100.494L11.9354 52.1272C6.19985 43.8263 6.32795 44.0921 15.3172 37.8809L52.9141 11.903C56.869 9.1704 62.5694 10.5642 65.6453 15.0159L99.0645 63.3824Z" fill="#CCD6DD"/>
<path d="M96.8763 67.8718C99.1836 71.2111 98.6493 75.579 95.6827 77.6287L52.7148 107.318C49.7482 109.368 45.4737 108.322 43.1664 104.983L9.74722 56.6166C7.43991 53.2772 7.97424 48.9094 10.9408 46.8596L53.9087 17.1706C56.8753 15.1208 61.1498 16.166 63.4571 19.5053L96.8763 67.8718Z" fill="#E1E8ED"/>
<path d="M98.2688 69.8871C101.345 74.3388 100.632 80.1637 96.6774 82.8963L59.0804 108.874C55.1256 111.607 49.4252 110.213 46.3493 105.761L15.715 61.4253C12.639 56.9736 13.3516 51.1487 17.3065 48.4161L54.9034 22.4382C58.8582 19.7056 64.5586 21.0994 67.6346 25.5511L98.2688 69.8871Z" fill="#2B230B"/>
<path d="M91.8505 68.647C94.6061 72.6351 93.6307 78.0862 89.6721 80.8214L55.6235 104.347C51.6649 107.083 46.2212 106.067 43.4656 102.079L18.5168 65.9711C15.7611 61.983 16.7365 56.5319 20.6951 53.7967L55.344 29.8558C59.3026 27.1206 63.7281 27.9464 66.4837 31.9345L91.8505 68.647Z" fill="#E1AD01"/>
<path d="M17.3064 48.4161C14.2844 50.5042 11.5311 46.6841 11.6868 44.1111C11.8661 41.1855 13.7507 38.9633 17.8917 36.1021L20.6882 34.1698L17.9033 30.1393L13.0354 33.5028C5.92957 38.4126 3.48116 47.5479 7.4845 53.3418L44.5589 106.998C47.6349 111.45 53.3352 112.844 57.2901 110.111L60.8707 107.637L19.0968 47.179L17.3064 48.4161Z" fill="#2B230B"/>
</svg>
