<svg width="26" height="26" viewBox="0 0 26 26" fill="none" xmlns="http://www.w3.org/2000/svg">
<g clip-path="url(#clip0_37_475)">
<path d="M18.3612 5.66396L22.2761 9.57889C22.441 9.74382 22.441 10.0129 22.2761 10.1778L12.7969 19.657L8.76915 20.1041C8.23096 20.1648 7.77523 19.7091 7.83599 19.1709L8.28304 15.1431L17.7622 5.66396C17.9271 5.49903 18.1962 5.49903 18.3612 5.66396ZM25.3924 4.67004L23.2744 2.55198C22.6146 1.89226 21.5426 1.89226 20.8785 2.55198L19.3421 4.08844C19.1771 4.25337 19.1771 4.52247 19.3421 4.6874L23.257 8.60233C23.4219 8.76726 23.691 8.76726 23.856 8.60233L25.3924 7.06587C26.0521 6.40181 26.0521 5.32976 25.3924 4.67004V4.67004ZM17.5539 17.0789V21.4973H3.66498V7.60841H13.6389C13.7778 7.60841 13.908 7.55198 14.0079 7.4565L15.744 5.72038C16.0738 5.39052 15.8395 4.83063 15.3751 4.83063H2.97054C1.82037 4.83063 0.887207 5.76379 0.887207 6.91396V22.1917C0.887207 23.3419 1.82037 24.2751 2.97054 24.2751H18.2483C19.3985 24.2751 20.3317 23.3419 20.3317 22.1917V15.3428C20.3317 14.8784 19.7718 14.6483 19.4419 14.9739L17.7058 16.71C17.6103 16.8098 17.5539 16.94 17.5539 17.0789Z" fill="#0E0D0D" fill-opacity="0.86"/>
</g>
<defs>
<clipPath id="clip0_37_475">
<rect width="25" height="25" fill="white" transform="translate(0.887207 0.663971)"/>
</clipPath>
</defs>
</svg>
