<svg width="88" height="84" viewBox="0 0 88 84" fill="none" xmlns="http://www.w3.org/2000/svg">
<path d="M87.9051 61.0714C88.4541 54.7851 86.6072 49.0878 82.7008 45.0284L41.5521 2.27347C40.5628 1.24548 38.9613 1.24548 37.9746 2.27347C36.9853 3.30146 36.9853 4.9657 37.9746 5.99106L79.1233 48.7486C81.9469 51.6854 83.2777 55.892 82.8653 60.5955C82.463 65.1912 80.444 69.6818 77.3295 72.9156C74.2176 76.1494 69.8962 78.2448 65.4762 78.6655C60.9702 79.0888 56.8994 77.7138 54.0758 74.777L7.56084 26.4404C5.08139 23.8639 4.88151 20.6458 5.1497 18.4006C5.5292 15.2561 7.05989 12.088 9.34958 9.70602C13.6507 5.2365 21.0283 3.25676 25.4508 7.84722L63.0221 46.8872C65.8532 49.8318 63.0879 54.2566 61.2308 56.1838C59.3763 58.1162 55.1157 60.9846 52.2871 58.0426L23.6621 28.2992C22.6728 27.2712 21.0713 27.2739 20.0846 28.2992C19.0953 29.3272 19.0953 30.9888 20.0846 32.0168L48.7071 61.7628C53.4104 66.6477 60.3655 64.5234 64.8058 59.904C69.2536 55.2846 71.2953 48.0545 66.597 43.1722L29.0283 4.13226C22.3996 -2.75606 11.7936 -0.266275 5.77209 5.98843C2.70061 9.18019 0.643677 13.4657 0.130076 17.7459C-0.449305 22.5651 0.919452 26.9715 3.98334 30.158L50.4958 78.4946C53.9493 82.0834 58.6375 84 63.857 84C64.5401 84 65.2333 83.9658 65.9316 83.9027C71.5129 83.3743 76.9677 80.7241 80.9045 76.6332C84.8463 72.5423 87.3941 66.8712 87.9051 61.0714V61.0714Z" fill="#2B230B"/>
</svg>
