<svg width="127" height="112" viewBox="0 0 127 112" fill="none" xmlns="http://www.w3.org/2000/svg">
<path d="M14.5639 103.912C8.11421 109.48 1.72325 112.99 0.287942 111.751C-1.14736 110.513 2.92362 104.999 9.37332 99.4338C15.823 93.8656 22.214 90.3562 23.6493 91.5947C25.0809 92.8331 21.0136 98.3442 14.5639 103.912V103.912Z" fill="#C1694F"/>
<path d="M23.6494 91.5978L15.8598 84.8768C15.8598 84.8768 11.8842 89.2889 7.47555 96.3741C4.17177 101.683 2.8833 105.034 2.8833 105.034L5.4786 107.273L8.0739 109.512C8.0739 109.512 11.9613 108.397 18.11 105.55C26.3217 101.746 31.4316 98.3157 31.4316 98.3157L23.6494 91.5978V91.5978Z" fill="#FFCC4D"/>
<path d="M124.881 4.24985C111.904 -6.94974 58.2032 36.8636 55.6079 39.1029C53.0126 41.3422 50.8211 43.3724 52.2013 44.5633L44.4154 51.2812C36.6259 58.0022 13.2645 82.6343 15.8598 84.8736L23.6494 91.5947L31.4353 98.3125C34.0306 100.552 62.5825 80.3951 70.3721 73.6772L78.158 66.9593C79.5382 68.1503 81.8912 66.2562 84.4865 64.0169C87.0818 61.7808 137.861 15.4494 124.881 4.24985V4.24985Z" fill="#2B230B"/>
<path d="M84.4865 64.02C84.7985 63.754 85.8153 62.8323 87.3277 61.4324L58.6106 36.6577C56.9881 37.9594 55.9235 38.84 55.6115 39.1092C53.0162 41.3485 50.8247 43.3787 52.205 44.5696L65.1814 55.7692L78.1616 66.9656C79.5382 68.1502 81.8912 66.2593 84.4865 64.02V64.02Z" fill="#FFCC4D"/>
<path d="M114.573 4.31635C111.17 1.38026 106.629 -1.69837 100.139 1.10153C93.6489 3.90143 73.294 15.1675 63.8782 23.2885C59.0254 27.4757 59.3007 29.9462 61.1214 30.1457C64.1352 30.4815 66.1505 30.4245 68.911 28.0458C71.6641 25.6672 72.1523 21.6067 72.1523 21.6067C72.1523 21.6067 83.3485 14.1888 92.1879 9.64059C101.031 5.08917 104.184 4.31318 107.275 6.98005C110.366 9.64692 114.573 4.31635 114.573 4.31635V4.31635Z" fill="#FFAC33"/>
<path d="M105.976 5.85564L123.019 20.5614C124.315 18.3158 125.336 16.1779 126.022 14.192L113.358 3.26479C111.056 3.86024 108.582 4.74075 105.976 5.85564V5.85564Z" fill="#FFAC33"/>
</svg>
