<svg width="118" height="120" viewBox="0 0 118 120" fill="none" xmlns="http://www.w3.org/2000/svg">
<path d="M110.627 2.76787C103.704 4.85206 90.6671 8.24285 85.696 10.2569C81.6849 11.8844 77.6551 13.4019 75.7437 15.2971C73.8356 17.1923 73.9504 20.4499 75.862 22.4337C75.862 22.4337 81.2808 30.7094 84.8905 33.6927C87.7503 37.4109 95.8236 43.0764 95.8236 43.0764C97.7417 45.0603 100.949 45.2426 102.861 43.3474C104.769 41.4488 106.347 37.396 108.034 33.3609C110.121 28.3676 113.724 15.2221 115.926 8.24881C116.3 7.05726 111.81 2.41358 110.627 2.76787Z" fill="#D99E82"/>
<path d="M16.9736 73.6699C20.7932 69.8762 26.9193 69.9382 30.6612 73.8085L44.2117 87.8202C47.9504 91.6905 47.8875 97.9063 44.0713 101.693L30.2399 115.431C26.4204 119.222 20.2943 119.16 16.5523 115.293L3.00508 101.281C-0.736936 97.4141 -0.674049 91.2016 3.14551 87.4079L16.9736 73.6699Z" fill="#FFCC4D"/>
<path d="M75.7437 15.297L89.3006 29.3188L102.841 43.3171L50.9836 94.8277L23.8893 66.8009L75.7437 15.297Z" fill="#2B230B"/>
<path d="M114.348 13.2739C114.348 13.2739 119.33 4.30432 116.95 1.84294C114.571 -0.618443 105.641 4.27563 105.641 4.27563C105.641 4.27563 105.713 12.8202 114.348 13.2739V13.2739Z" fill="#292F33"/>
<path d="M33.6978 111.997L6.60011 83.97L23.886 66.8043L50.9837 94.8277L33.6978 111.997Z" fill="#CCD6DD"/>
<path d="M37.1523 108.562L10.0579 80.5389L13.5157 77.1044L40.6101 105.128L37.1523 108.562ZM44.0745 101.697L16.9769 73.6699L20.4347 70.2355L47.5291 98.2622L44.0745 101.697Z" fill="#99AAB5"/>
</svg>
