<svg width="25" height="25" viewBox="0 0 25 25" fill="none" xmlns="http://www.w3.org/2000/svg">
<g clip-path="url(#clip0_1_282)">
<path d="M23.7196 8.55924L16.8927 7.5653L13.8418 1.3904C13.5676 0.838626 13.0326 0.559708 12.4976 0.559708C11.9659 0.559708 11.4347 0.834894 11.1595 1.3904L8.10771 7.56484L1.28028 8.55784C0.0559337 8.73508 -0.434738 10.2411 0.452855 11.104L5.39175 15.9081L4.22291 22.6936C4.05687 23.6628 4.83065 24.4403 5.69726 24.4403C5.9272 24.4403 6.16368 24.3857 6.39082 24.2654L12.4986 21.062L18.6058 24.2663C18.8325 24.3853 19.0685 24.4394 19.2975 24.4394C20.1651 24.4394 20.9403 23.6647 20.7742 22.695L19.6068 15.9091L24.5466 11.1059C25.4347 10.243 24.944 8.73648 23.7196 8.55924V8.55924ZM18.0415 14.3055L17.1963 15.1273L17.396 16.2878L18.3064 21.5793L13.5429 19.0798L12.499 18.5322L12.5004 3.73788L14.8806 8.55551L15.402 9.61101L16.5685 9.78079L21.8964 10.5564L18.0415 14.3055V14.3055Z" fill="black"/>
</g>
<defs>
<clipPath id="clip0_1_282">
<rect width="25" height="25" fill="white"/>
</clipPath>
</defs>
</svg>
