<svg width="37" height="51" viewBox="0 0 37 51" fill="none" xmlns="http://www.w3.org/2000/svg">
<path d="M12.1284 13.9448C12.1284 13.3312 12.0755 12.8869 11.9697 12.6118C11.8851 12.3368 11.8428 12.0828 11.8428 11.8501C11.8428 11.5327 12.012 11.2682 12.3506 11.0566C12.6891 10.8451 13.0911 10.7393 13.5566 10.7393C14.6357 10.7393 15.5033 11.0249 16.1592 11.5962C16.8363 12.1463 17.1748 12.8234 17.1748 13.6274V37.7168C17.1748 39.2826 17.3018 40.6156 17.5557 41.7158C17.8096 42.8161 18.1904 43.7153 18.6982 44.4136C19.2061 45.1118 19.8302 45.6302 20.5708 45.9688C21.3114 46.2861 22.1577 46.4448 23.1099 46.4448C24.0197 46.4448 24.8555 46.2756 25.6172 45.937C26.4001 45.5985 27.0771 45.133 27.6484 44.5405C28.2197 43.9481 28.6641 43.2498 28.9814 42.4458C29.2988 41.6418 29.4575 40.7637 29.4575 39.8115C29.4575 38.3516 29.2036 37.1349 28.6958 36.1616C28.188 35.1883 27.5215 34.4054 26.6963 33.813C25.8923 33.2205 24.9718 32.8079 23.9351 32.5752C22.9194 32.3213 21.9038 32.1943 20.8882 32.1943C20.6978 32.1943 20.5073 32.078 20.3169 31.8452C20.1265 31.5913 19.9678 31.2845 19.8408 30.9248C19.7139 30.5651 19.6187 30.1842 19.5552 29.7822C19.4917 29.359 19.4811 28.9676 19.5234 28.6079C19.5658 28.2482 19.661 27.952 19.8091 27.7192C19.9784 27.4653 20.2323 27.3384 20.5708 27.3384C21.0786 27.3384 21.6922 27.2749 22.4116 27.1479C23.131 27.021 23.8822 26.7988 24.665 26.4814C25.4479 26.1429 26.2202 25.6986 26.9819 25.1484C27.7437 24.5983 28.4313 23.9001 29.0449 23.0537C29.6585 22.1862 30.1558 21.1706 30.5366 20.0068C30.9175 18.8219 31.1079 17.4466 31.1079 15.8809C31.1079 14.6536 30.8963 13.4476 30.4731 12.2627C30.0711 11.0566 29.4152 9.98812 28.5054 9.05713C27.5955 8.10498 26.4318 7.34326 25.0142 6.77197C23.5965 6.17952 21.8932 5.8833 19.9043 5.8833C17.3018 5.8833 15.0695 6.28532 13.2075 7.08936C11.3455 7.89339 9.8221 8.97249 8.63721 10.3267C7.47347 11.6808 6.61654 13.2572 6.06641 15.0557C5.51628 16.833 5.24121 18.7161 5.24121 20.7051C5.24121 22.1439 5.35758 23.3605 5.59033 24.355C5.84424 25.3283 6.1193 26.1323 6.41553 26.7671C6.71175 27.3807 6.98682 27.8356 7.24072 28.1318C7.49463 28.4281 7.64274 28.5973 7.68506 28.6396C8.04476 28.5339 8.29867 28.5762 8.44678 28.7666C8.59489 28.957 8.66895 29.2109 8.66895 29.5283C8.66895 29.8245 8.56315 30.2689 8.35156 30.8613C8.16113 31.4538 7.89665 32.0145 7.55811 32.5435C7.21956 33.0513 6.82812 33.4427 6.38379 33.7178C5.93945 33.9717 5.48454 33.9188 5.01904 33.5591C4.76514 33.3263 4.3737 32.9032 3.84473 32.2896C3.31576 31.6759 2.78678 30.8613 2.25781 29.8457C1.75 28.8089 1.29508 27.5711 0.893066 26.1323C0.491048 24.6724 0.290039 22.9902 0.290039 21.0859C0.290039 18.0391 0.766113 15.2884 1.71826 12.834C2.67041 10.3584 4.00342 8.24251 5.71729 6.48633C7.45231 4.73014 9.5153 3.37598 11.9062 2.42383C14.2972 1.47168 16.9421 0.995605 19.8408 0.995605C22.2952 0.995605 24.5169 1.33415 26.5059 2.01123C28.516 2.66715 30.2298 3.62988 31.6475 4.89941C33.0651 6.16895 34.1548 7.72412 34.9165 9.56494C35.6994 11.3846 36.0908 13.4476 36.0908 15.7539C36.0908 17.5312 35.8792 19.1393 35.4561 20.5781C35.0329 22.0169 34.4404 23.3076 33.6787 24.4502C32.9382 25.5928 32.0495 26.6084 31.0127 27.4971C29.9971 28.3646 28.8968 29.1157 27.7119 29.7505C28.6641 30.0256 29.5527 30.4382 30.3779 30.9883C31.2031 31.5173 31.9225 32.1943 32.5361 33.0195C33.1497 33.8447 33.6364 34.818 33.9961 35.9395C34.3558 37.0397 34.5356 38.2881 34.5356 39.6846C34.5356 41.3138 34.2394 42.8161 33.647 44.1914C33.0757 45.5667 32.2822 46.7516 31.2666 47.7461C30.251 48.7406 29.0449 49.5129 27.6484 50.063C26.2731 50.6343 24.7814 50.9199 23.1733 50.9199C21.0363 50.9199 19.259 50.592 17.8413 49.936C16.4237 49.3013 15.2917 48.402 14.4453 47.2383C13.599 46.0534 12.9959 44.6463 12.6362 43.0171C12.2977 41.3667 12.1284 39.5365 12.1284 37.5264V13.9448Z" fill="black"/>
</svg>
